<mxfile host="app.diagrams.net" modified="2023-04-22T19:35:12.254Z" agent="Mozilla/5.0 (Windows NT 10.0; Win64; x64) AppleWebKit/537.36 (KHTML, like Gecko) Chrome/112.0.0.0 Safari/537.36" etag="pWZ1BsRHnw3hy_JY9RQO" version="21.2.1" type="github">
  <diagram name="Страница 1" id="F9opBNiYviMy6Z-xRJ0c">
    <mxGraphModel dx="1050" dy="549" grid="1" gridSize="10" guides="1" tooltips="1" connect="1" arrows="1" fold="1" page="1" pageScale="1" pageWidth="827" pageHeight="1169" math="0" shadow="0">
      <root>
        <mxCell id="0" />
        <mxCell id="1" parent="0" />
        <mxCell id="EoJMInTIEMuazByCyURs-20" style="edgeStyle=orthogonalEdgeStyle;rounded=0;orthogonalLoop=1;jettySize=auto;html=1;exitX=1;exitY=0.5;exitDx=0;exitDy=0;entryX=0;entryY=0.5;entryDx=0;entryDy=0;" edge="1" parent="1" source="EoJMInTIEMuazByCyURs-1" target="EoJMInTIEMuazByCyURs-2">
          <mxGeometry relative="1" as="geometry" />
        </mxCell>
        <mxCell id="EoJMInTIEMuazByCyURs-26" style="edgeStyle=orthogonalEdgeStyle;rounded=0;orthogonalLoop=1;jettySize=auto;html=1;exitX=1;exitY=0.25;exitDx=0;exitDy=0;entryX=0;entryY=0.5;entryDx=0;entryDy=0;" edge="1" parent="1" source="EoJMInTIEMuazByCyURs-1" target="EoJMInTIEMuazByCyURs-3">
          <mxGeometry relative="1" as="geometry" />
        </mxCell>
        <mxCell id="EoJMInTIEMuazByCyURs-1" value="parseFull" style="rounded=0;whiteSpace=wrap;html=1;" vertex="1" parent="1">
          <mxGeometry x="20" y="80" width="120" height="60" as="geometry" />
        </mxCell>
        <mxCell id="EoJMInTIEMuazByCyURs-21" style="edgeStyle=orthogonalEdgeStyle;rounded=0;orthogonalLoop=1;jettySize=auto;html=1;exitX=1;exitY=0.5;exitDx=0;exitDy=0;entryX=0;entryY=0.5;entryDx=0;entryDy=0;" edge="1" parent="1" source="EoJMInTIEMuazByCyURs-2" target="EoJMInTIEMuazByCyURs-7">
          <mxGeometry relative="1" as="geometry" />
        </mxCell>
        <mxCell id="EoJMInTIEMuazByCyURs-2" value="parseLessons" style="rounded=0;whiteSpace=wrap;html=1;" vertex="1" parent="1">
          <mxGeometry x="180" y="110" width="120" height="60" as="geometry" />
        </mxCell>
        <mxCell id="EoJMInTIEMuazByCyURs-3" value="parseGroups" style="rounded=0;whiteSpace=wrap;html=1;" vertex="1" parent="1">
          <mxGeometry x="180" y="30" width="120" height="60" as="geometry" />
        </mxCell>
        <mxCell id="EoJMInTIEMuazByCyURs-25" style="edgeStyle=orthogonalEdgeStyle;rounded=0;orthogonalLoop=1;jettySize=auto;html=1;exitX=0.5;exitY=1;exitDx=0;exitDy=0;entryX=0.449;entryY=0.011;entryDx=0;entryDy=0;entryPerimeter=0;" edge="1" parent="1" source="EoJMInTIEMuazByCyURs-4" target="EoJMInTIEMuazByCyURs-12">
          <mxGeometry relative="1" as="geometry" />
        </mxCell>
        <mxCell id="EoJMInTIEMuazByCyURs-4" value="findCommonSubject" style="rounded=0;whiteSpace=wrap;html=1;" vertex="1" parent="1">
          <mxGeometry x="560" y="70" width="120" height="60" as="geometry" />
        </mxCell>
        <mxCell id="EoJMInTIEMuazByCyURs-23" style="edgeStyle=orthogonalEdgeStyle;rounded=0;orthogonalLoop=1;jettySize=auto;html=1;exitX=1;exitY=0.5;exitDx=0;exitDy=0;entryX=0;entryY=0.5;entryDx=0;entryDy=0;" edge="1" parent="1" source="EoJMInTIEMuazByCyURs-7" target="EoJMInTIEMuazByCyURs-4">
          <mxGeometry relative="1" as="geometry" />
        </mxCell>
        <mxCell id="EoJMInTIEMuazByCyURs-24" style="edgeStyle=orthogonalEdgeStyle;rounded=0;orthogonalLoop=1;jettySize=auto;html=1;exitX=1;exitY=0.75;exitDx=0;exitDy=0;entryX=-0.003;entryY=0.643;entryDx=0;entryDy=0;entryPerimeter=0;" edge="1" parent="1" source="EoJMInTIEMuazByCyURs-7" target="EoJMInTIEMuazByCyURs-8">
          <mxGeometry relative="1" as="geometry" />
        </mxCell>
        <mxCell id="EoJMInTIEMuazByCyURs-28" style="edgeStyle=orthogonalEdgeStyle;rounded=0;orthogonalLoop=1;jettySize=auto;html=1;exitX=1;exitY=0.5;exitDx=0;exitDy=0;entryX=0.357;entryY=0.002;entryDx=0;entryDy=0;entryPerimeter=0;" edge="1" parent="1" source="EoJMInTIEMuazByCyURs-7" target="EoJMInTIEMuazByCyURs-12">
          <mxGeometry relative="1" as="geometry" />
        </mxCell>
        <mxCell id="EoJMInTIEMuazByCyURs-7" value="parseLessonsWithSameTime" style="rounded=0;whiteSpace=wrap;html=1;" vertex="1" parent="1">
          <mxGeometry x="340" y="110" width="180" height="60" as="geometry" />
        </mxCell>
        <mxCell id="EoJMInTIEMuazByCyURs-8" value="clearSubjectName" style="rounded=0;whiteSpace=wrap;html=1;" vertex="1" parent="1">
          <mxGeometry x="560" y="280" width="120" height="60" as="geometry" />
        </mxCell>
        <mxCell id="EoJMInTIEMuazByCyURs-12" value="CommonSubject" style="swimlane;childLayout=stackLayout;horizontal=1;startSize=26;fillColor=none;horizontalStack=0;resizeParent=1;resizeParentMax=0;resizeLast=0;collapsible=1;marginBottom=0;whiteSpace=wrap;html=1;" vertex="1" parent="1">
          <mxGeometry x="560" y="160" width="140" height="90" as="geometry" />
        </mxCell>
        <mxCell id="EoJMInTIEMuazByCyURs-13" value="name: String" style="text;strokeColor=none;fillColor=none;align=left;verticalAlign=top;spacingLeft=4;spacingRight=4;overflow=hidden;rotatable=0;points=[[0,0.5],[1,0.5]];portConstraint=eastwest;whiteSpace=wrap;html=1;" vertex="1" parent="EoJMInTIEMuazByCyURs-12">
          <mxGeometry y="26" width="140" height="34" as="geometry" />
        </mxCell>
        <mxCell id="EoJMInTIEMuazByCyURs-14" value="cellWidth: Int" style="text;strokeColor=none;fillColor=none;align=left;verticalAlign=top;spacingLeft=4;spacingRight=4;overflow=hidden;rotatable=0;points=[[0,0.5],[1,0.5]];portConstraint=eastwest;whiteSpace=wrap;html=1;" vertex="1" parent="EoJMInTIEMuazByCyURs-12">
          <mxGeometry y="60" width="140" height="30" as="geometry" />
        </mxCell>
      </root>
    </mxGraphModel>
  </diagram>
</mxfile>
